<svg xmlns="http://www.w3.org/2000/svg" viewBox="0 0 70.99 78.98"><defs><style>.cls-1{fill:#21b78a;}.cls-2{fill:#b1e0d3;}.cls-3{fill:#fefcc6;}.cls-4{fill:#0a0a08;}</style></defs><g id="图层_2" data-name="图层 2"><g id="图层_1-2" data-name="图层 1"><path class="cls-1" d="M34.24,16.18A59.25,59.25,0,0,1,48,17.57c-1.41-2.64-2.83-4.9-2.16-7.71A8.36,8.36,0,0,1,50.51,4,8.12,8.12,0,0,1,61.18,7.84c2.22,4.59.3,8.7-5.55,11.77,3.62,1.74,7.27,3.36,10.1,6.28a11.2,11.2,0,0,1,3.53,6.78c.82,9.45,2,18.86,1.67,28.39S68,75.92,55.06,78.59a17.7,17.7,0,0,1-4.17.38c-7.3-.23-11.45-2-12.11-10.08-.27-3.19-.21-6.38-.41-9.57-.1-1.49-.3-3-.51-4.45-.37-2.73-1.82-4-4.7-3.76A165.56,165.56,0,0,1,14,51.76C5.65,51.43,1.3,47.55.34,39.28A46.7,46.7,0,0,1,.52,26.73c1-6.53,5.26-10.65,11.84-11,4.28-.24,8.58-.05,13.27-.05-.9-.86-1.63-1.45-2.24-2.15a8.13,8.13,0,1,1,11.85.27,17.19,17.19,0,0,1-1.6,1.34C33,16,33.86,15.93,34.24,16.18Z"/><path class="cls-2" d="M34.24,16.18c-.64.08-1.55.44-1.82-.18s.65-.77,1.22-.88Z"/><path class="cls-3" d="M25.09,32.16c-.06.69-.08,1.09-.12,1.49-.68,6.36-3,8.82-8.07,8.53A10,10,0,0,1,7.5,32.06,9.8,9.8,0,0,1,11,24.42C13.93,22,17.3,21,20.78,22.63,25,24.53,24.66,28.72,25.09,32.16Z"/><path class="cls-4" d="M21.3,37.49a2.23,2.23,0,0,1-2.57,2.27,2.17,2.17,0,0,1-2.26-2.51A2.32,2.32,0,0,1,19,35C20.58,35,21.19,36.12,21.3,37.49Z"/></g></g></svg>