<svg xmlns="http://www.w3.org/2000/svg" viewBox="0 0 89.17 113.65"><defs><style>.cls-1{fill:#b3d045;}.cls-2{fill:#f7fcd9;}.cls-3{fill:#0a0a08;}</style></defs><g id="图层_2" data-name="图层 2"><g id="图层_1-2" data-name="图层 1"><path class="cls-1" d="M18.49,113.37a93.77,93.77,0,0,0,9.76-17.73c1.8-4.58,3.14-9.24,3-14.25a15.35,15.35,0,0,0-6.75-12.7,36.35,36.35,0,0,0-7.59-4.2C3,58.89-.75,51.77.12,35c.71-13.7,15-30.29,28.27-33.91,12.45-3.41,25.16,1.16,32.2,12,4.72,7.28,9.33,14.73,9.82,23.8.31,5.55-.91,10.93-2.19,16.24-2.64,11-.82,21.34,4.08,31.38A193.71,193.71,0,0,0,88.21,111.3c.42.58,1.34,1.19.78,2-.22.33-1.08.32-1.65.32q-33.89,0-67.76,0A6.67,6.67,0,0,1,18.49,113.37Z"/><path class="cls-2" d="M36.68,20.82a16.74,16.74,0,0,1,16.6,16.63A17,17,0,0,1,36.42,54.2,17,17,0,0,1,19.8,37.49,16.79,16.79,0,0,1,36.68,20.82Z"/><path class="cls-3" d="M41.87,39.59a2.41,2.41,0,0,1-2.56,2.3A2.13,2.13,0,0,1,37,39.63a2.23,2.23,0,0,1,2.32-2.54A2.42,2.42,0,0,1,41.87,39.59Z"/></g></g></svg>