<svg xmlns="http://www.w3.org/2000/svg" viewBox="0 0 125.22 77.4"><defs><style>.cls-1{fill:#6dc9eb;}.cls-2{fill:#f7fcd9;}.cls-3{fill:#fefcc6;}.cls-4{fill:#060a0c;}.cls-5{fill:#0b0b09;}.cls-6{fill:#090907;}.cls-7{fill:#070706;}</style></defs><g id="图层_2" data-name="图层 2"><g id="图层_1-2" data-name="图层 1"><path class="cls-1" d="M35.8,73.31c-5.8,5-8.06,5.25-15.29,1.56-1-.5-1.36-.07-2,.39-3.74,2.57-7.85,2.82-11.16.42s-4.84-5.75-3.71-9.93c.44-1.61-.2-2.91-.84-4.28C.54,56.66-.65,51.61.37,46.33c1.25-6.51,5.8-10.24,11.54-12.79,3-1.33,6.15-2.37,9-4.15a5.6,5.6,0,0,0,2.86-6.28c-.93-5.47,1.14-8.58,6.51-10A36.17,36.17,0,0,1,41.81,11.8c15,.87,29.35-2.15,43.31-7.57A59.17,59.17,0,0,1,102.53.05a14.89,14.89,0,0,1,14.59,7.53c3.8,6.16,5.59,13,6.55,20,1.55,11.34.4,22.76.73,34.13a14.81,14.81,0,0,0,.38,3.85c1.22,4.3-.11,8-3.53,10.18a9.4,9.4,0,0,1-11.64-1c-1.75-1.74-2.42-1.52-3.94.17a7.86,7.86,0,0,1-11.5-.25C93,73.5,92.54,73.12,91,74.44c-3.93,3.43-8.44,3.8-13.09,1.48a3.1,3.1,0,0,0-3.31.11,8.73,8.73,0,0,1-9.87-.37,2.07,2.07,0,0,0-2.86-.06c-3.59,2.58-7.38,2.3-10.67-.58-.65-.57-.9-1.35-2.08-.43C43.85,78.71,40.52,78.32,35.8,73.31Z"/><path class="cls-2" d="M51.63,53.77C42.41,53.76,34.71,46.15,35,37s6.61-16.46,16.86-16.6c9.11-.13,16.73,8,16.59,17A16.8,16.8,0,0,1,51.63,53.77Z"/><path class="cls-3" d="M31.32,43.5c0,6.79-2.47,10.28-7.32,10.27a10.18,10.18,0,0,1-.22-20.35C28.71,33.34,31.3,36.81,31.32,43.5Z"/><path class="cls-3" d="M80.52,46.51a8.36,8.36,0,0,1-8.14-8.3,8.21,8.21,0,0,1,8.1-7.91,8.07,8.07,0,0,1,8.3,8A8.36,8.36,0,0,1,80.52,46.51Z"/><path class="cls-3" d="M104.05,40.64a7.84,7.84,0,0,1-8-7.93,8.11,8.11,0,0,1,8-8.28,8.38,8.38,0,0,1,8.18,8.23A7.9,7.9,0,0,1,104.05,40.64Z"/><path class="cls-4" d="M18.14,68.7c-4.77-.08-9.52-6.51-8.36-10.85.1-.38.13-.8.66-.79a1,1,0,0,1,1,.87,29.85,29.85,0,0,0,.65,3.8c1.81,5.83,6.59,6.92,10.91,2.62.78-.77,1.41-2.95,2.68-1.75,1,.92-.87,2.08-1.68,3A8.9,8.9,0,0,1,18.14,68.7Z"/><path class="cls-5" d="M54.56,41.6c-1.45-.23-2.42-1-2.41-2.53a2.18,2.18,0,0,1,2.5-2.31A2.21,2.21,0,0,1,57,39,2.44,2.44,0,0,1,54.56,41.6Z"/><path class="cls-6" d="M27.69,48.64a2.38,2.38,0,0,1-2.4,2.66,2.39,2.39,0,0,1-.24-4.78A2.36,2.36,0,0,1,27.69,48.64Z"/><path class="cls-5" d="M80.74,43.16c-1.73,0-2.55-.94-2.59-2.4a2.4,2.4,0,1,1,2.59,2.4Z"/><path class="cls-7" d="M106.59,35.1c-.22,1.55-1.07,2.49-2.57,2.38a2.29,2.29,0,0,1-2.24-2.64,2.18,2.18,0,0,1,2.4-2.15A2.32,2.32,0,0,1,106.59,35.1Z"/></g></g></svg>