<svg xmlns="http://www.w3.org/2000/svg" viewBox="0 0 85.28 85.38"><defs><style>.cls-1{fill:#f48a1e;}.cls-2{fill:#fefcc6;}.cls-3{fill:#0d0702;}.cls-4{fill:#0a0907;}</style></defs><g id="图层_2" data-name="图层 2"><g id="图层_1-2" data-name="图层 1"><path class="cls-1" d="M85.28,39.1c-.26,4-.47,8-.78,12A15,15,0,0,1,76,63.93c-6.87,3.61-14.39,4.68-21.92,5.6-6,.74-12.12,1.21-18.2,1.59-1.79.11-2.36.8-2.71,2.39C32.42,77,31.4,80.46,30.6,84c-.3,1.31-.82,1.71-2.05,1.2-.18-.07-.39-.09-.58-.15-6.07-1.71-6.07-1.71-5-7.92,1.37-7.81,1.35-7.79-5.6-11.17a63.93,63.93,0,0,1-8.2-4.31C3,57.41.46,51.14.09,43.91A56.23,56.23,0,0,1,1.6,27c1.87-7.3,6.26-12.35,13.46-14.82.56-.2,1.13-.39,1.69-.62,2.1-.86,5.1-.74,6.17-2.53,1-1.62.39-4.27.19-6.44S24.4.39,25.74.36,28.9-1,29.55,1.66c.47,1.91-.07,4.68,2.05,5.46,1.71.63,3.93-.21,5.92-.25C47.71,6.68,57.9,6.78,68,8.69s14.79,8.64,16.51,18.15A77.32,77.32,0,0,1,85.28,39.1Z"/><path class="cls-2" d="M68.33,30.67a16.59,16.59,0,1,1-33.17.11,16.59,16.59,0,1,1,33.17-.11Z"/><path class="cls-3" d="M18.25,22.15c1.3.31,4.29-.46,4.22,1.23s-2.79.05-4.31.44a10.5,10.5,0,0,1-1.78.05c-1.5.11-3.22.16-3.78,1.8s.91,2.47,1.87,3.44c.35.35.8.6,1.16.93a.82.82,0,0,1,.17,1.28c-.46.56-.89.23-1.26-.07-1.86-1.5-4.19-2.95-3.7-5.66s3.13-3.24,5.58-3.44C16.91,22.11,17.41,22.15,18.25,22.15Z"/><path class="cls-4" d="M62.74,32.67c-.21,1.47-1,2.52-2.47,2.51a2.26,2.26,0,0,1-2.37-2.49,2.1,2.1,0,0,1,2.21-2.28C61.68,30.34,62.43,31.28,62.74,32.67Z"/></g></g></svg>