<svg xmlns="http://www.w3.org/2000/svg" viewBox="0 0 81.19 131.28"><defs><style>.cls-1{fill:#672d90;}.cls-2{fill:#fefcc6;}.cls-3{fill:#060208;}.cls-4{fill:#0b0b08;}</style></defs><g id="图层_2" data-name="图层 2"><g id="图层_1-2" data-name="图层 1"><path class="cls-1" d="M6,112.45c0-4.1.08-8.2,0-12.29,0-1.85.51-2.34,2.38-2.3,7,.14,14.05-.16,20.64-2.79,9.76-3.88,15-11.62,17-21.61C47.75,64.28,48.61,55,45.28,46,40.35,32.56,30.49,25.09,16.55,22.68A125.28,125.28,0,0,0,2,21c-1.61-.09-2.5-.17-1.68-2.17,1.8-4.43,3.43-8.93,5.12-13.41.33-.86.71-1.64,1.74-1.86C20,.75,32.94-1.68,46,1.52,57.53,4.34,65.75,11.8,72,21.74,81.94,37.47,83.3,54.18,78.55,71.8c-3,11.26-4.54,22.9-8.4,34-4.48,12.84-12.81,21.88-26.58,24.55-12.23,2.37-24.25,0-36.16-2.74C5.91,127.21,6,126.16,6,125,6,120.84,6,116.64,6,112.45Z"/><path class="cls-2" d="M45.51,12.85c0,6.6-2.47,10-7.27,10A10,10,0,0,1,28.07,12.61a10.1,10.1,0,0,1,10.11-10C43.05,2.6,45.53,6.08,45.51,12.85Z"/><path class="cls-3" d="M57.65,31.36c.25-.63-.89-2.36.68-2.4,1.24,0,1,1.72,1,2.75.11,1.93,0,3.93-1.91,5s-3.63,0-5.24-1A17.92,17.92,0,0,1,48,31.44c-.43-.55-1-1.15-.12-1.73.7-.46,1,.24,1.4.66A18.24,18.24,0,0,0,52.8,34c1.15.81,2.34,1.79,3.79,1.13S57.47,32.87,57.65,31.36Z"/><path class="cls-4" d="M41.88,18.14c-.34,1.44-1.13,2.34-2.69,2.23A2.16,2.16,0,0,1,37,18a2.24,2.24,0,0,1,2.44-2.43A2.51,2.51,0,0,1,41.88,18.14Z"/></g></g></svg>