<svg xmlns="http://www.w3.org/2000/svg" viewBox="0 0 72.53 67.13"><defs><style>.cls-1{fill:#c02627;}.cls-2{fill:#fefbc6;}.cls-3{fill:#fefcc6;}.cls-4{fill:#070101;}.cls-5{fill:#080806;}.cls-6{fill:#0e0d0b;}</style></defs><g id="图层_2" data-name="图层 2"><g id="图层_1-2" data-name="图层 1"><path class="cls-1" d="M.08,33.73C.45,26.94.59,20.14,2,13.46,4.32,2.75,9.2-1,20,.21c4.4.49,8.77.33,13.16.48a13,13,0,0,1,7.36,2.13c3,2.1,4.37,4.86,3.53,8.52a15.75,15.75,0,0,0-.34,5.07c.43,4.16,2.56,6.17,6.72,6.42,5.18.31,10.38.49,15.43,1.85,4.77,1.27,6.8,3.95,6.66,8.91a22.71,22.71,0,0,1-.69,5.33c-1.52,5.68-2.91,11.37-4,17.17C66.39,64.09,60.8,68,52.64,67c-8.8-1.12-17.59-2.5-26.33-4.07A47,47,0,0,1,10.4,57a27.65,27.65,0,0,1-7.18-5.83A12.49,12.49,0,0,1,0,41.82C.24,39.14.08,36.43.08,33.73Z"/><path class="cls-2" d="M28,34.39a7.94,7.94,0,0,1,8-7.94,8.12,8.12,0,1,1,0,16.23A8,8,0,0,1,28,34.39Z"/><path class="cls-3" d="M7.69,17.44a8.18,8.18,0,0,1,8.17-8.16,8.33,8.33,0,0,1,8,8.35,8.07,8.07,0,0,1-8.07,7.92A8,8,0,0,1,7.69,17.44Z"/><path class="cls-4" d="M15.86,38.92c-4.62,0-9.49-6.68-8.13-10.89.13-.42.3-.82.74-.7a1.23,1.23,0,0,1,.78.76c.28,1.26.35,2.57.68,3.81.69,2.57,2.13,4.61,4.86,5.19s4.56-1,6.28-2.77c.42-.42.73-.94,1.13-1.39s.81-.65,1.31-.31.3.87,0,1.28A11,11,0,0,1,15.86,38.92Z"/><path class="cls-5" d="M34.53,32.77c-.21,1.42-.88,2.55-2.41,2.58a2.26,2.26,0,0,1-2.45-2.43,2.15,2.15,0,0,1,2.17-2.36C33.43,30.41,34.17,31.37,34.53,32.77Z"/><path class="cls-6" d="M16.11,22.35c-1.76,0-2.69-.86-2.77-2.31a2.25,2.25,0,0,1,2.28-2.53,2.18,2.18,0,0,1,2.51,2.27A2.32,2.32,0,0,1,16.11,22.35Z"/></g></g></svg>