<svg xmlns="http://www.w3.org/2000/svg" viewBox="0 0 119.55 127.76"><defs><style>.cls-1{fill:#ea1a75;}.cls-2{fill:#07060b;}.cls-3{fill:#fefcc6;}.cls-4{fill:#fefbc6;}.cls-5{fill:#0a0a08;}.cls-6{fill:#060605;}.cls-7{fill:#070705;}</style></defs><g id="图层_2" data-name="图层 2"><g id="图层_1-2" data-name="图层 1"><path class="cls-1" d="M0,70.55c.28-16,4-31,12.39-44.75,8.82-14.49,22.28-22,38.46-25C71.93-3.11,100.19,7.07,111.61,34c7.84,18.49,10.65,37.4,4.87,57-3,10.08-8.63,18.2-18.87,22.24-5.34,2.11-11,2.21-16.55,1.79-2-.15-2.64.36-2.54,2.35.13,2.69.47,5.49-.07,8.08-.92,4.39-4.58,1.06-6.86,1.89-1.24.44-3.09.58-3-2,.15-2.79,0-5.6,0-8.39,0-1.43-.25-2.21-2-2.19q-8.4.12-16.8,0c-1.71,0-2,.77-1.93,2.19.06,2.79-.06,5.6,0,8.39.06,1.57-.51,2-2.06,2.08-8.17.39-8.17.43-8.17-7.61a24.3,24.3,0,0,1,0-2.7c.22-2-.72-2.36-2.48-2.22-17.54,1.37-27.08-8.46-31.85-21.68A59.93,59.93,0,0,1,.87,82.8,65.17,65.17,0,0,1,0,70.55Z"/><path class="cls-2" d="M58.05,93.19c-5.9-.77-13.45-.6-19.48-5.85-3-2.62-5.59-5.29-5-9.85.82-6.67,6.71-11.09,13-8.9,7.41,2.56,14.7,2,22.11.49,2.53-.51,4.5-2,6.53-3.48,2.57-1.81,5.23-3.63,8.51-1.84s4.22,5,4.08,8.66A21,21,0,0,1,74.37,90.63,44.58,44.58,0,0,1,58.05,93.19Z"/><path class="cls-3" d="M48,42.68A16.86,16.86,0,0,1,31.18,59.43a16.73,16.73,0,0,1,0-33.45A16.82,16.82,0,0,1,48,42.68Z"/><path class="cls-3" d="M100.4,40.33c0,1.07,0,1.27,0,1.47-.12,3.47-.39,7-4,8.69s-6.91.75-9.76-1.69a9.49,9.49,0,0,1-3.35-9.93,9.78,9.78,0,0,1,7-7.51c5.2-1.6,8.91.63,9.92,6A20.39,20.39,0,0,1,100.4,40.33Z"/><path class="cls-4" d="M65.94,47.08A8,8,0,0,1,57.76,39,8.34,8.34,0,0,1,66,30.84a8.18,8.18,0,0,1,8,8.36A7.88,7.88,0,0,1,65.94,47.08Z"/><path class="cls-5" d="M42.23,44.73a2.16,2.16,0,0,1-2.47,2.35,2.22,2.22,0,0,1-2.34-2.24A2.31,2.31,0,0,1,39.8,42.3,2.26,2.26,0,0,1,42.23,44.73Z"/><path class="cls-6" d="M96.77,46.28a2.26,2.26,0,0,1-2.46,2.45A2.19,2.19,0,0,1,92,46.52a2.4,2.4,0,1,1,4.8-.24Z"/><path class="cls-7" d="M61.93,34.93c1.5.27,2.44,1.15,2.3,2.63a2.25,2.25,0,0,1-2.67,2.19,2.12,2.12,0,0,1-2.1-2.4C59.5,35.78,60.49,35.1,61.93,34.93Z"/></g></g></svg>