<svg xmlns="http://www.w3.org/2000/svg" viewBox="0 0 189.4 125.59"><defs><style>.cls-1{fill:#0d89a5;}.cls-2{fill:#fefcc6;}.cls-3{fill:#0a0a07;}</style></defs><g id="图层_2" data-name="图层 2"><g id="图层_1-2" data-name="图层 1"><path class="cls-1" d="M22.7,49c5-1.26,8.54,1,12.16,4.07A89,89,0,0,0,70.37,71.62a45.13,45.13,0,0,0,37.79-6.36,132.48,132.48,0,0,0,23-19.52,39.83,39.83,0,0,0,11-26.79,59.5,59.5,0,0,1,.67-5.95c1.4-9.78,8.2-14.53,17.94-12.56,15,3,23.75,13,27.11,29,3.9,18.59-.44,35.71-8,52.3-5.36,11.69-15.74,17.58-27.59,20.76-17.84,4.8-35.83,9-54.47,9.2l-.6,0c-7.63.43-9.51,2-10.72,9.59-.47,3-1.22,4.68-4.71,4.12-2.24-.37-5,.67-6.77-.32-2-1.16-.08-4.14-.76-6.27-.35-1.13-.31-2.38-.64-3.53-.6-2.15-1.73-3.76-4.29-3.91s-5.17-.44-7.75-.74c-18.37-2.12-34.79-8.43-47.79-22.17-3.09-3.26-6.81-5.88-9.65-9.4-5.69-7.07-5.56-14.4.49-21.1A47,47,0,0,1,15.11,49.6C17.51,48.12,20.21,49.26,22.7,49Z"/><path class="cls-2" d="M165.64,52.92a16.7,16.7,0,0,1,0-33.39A16.94,16.94,0,0,1,182.37,36.4,16.74,16.74,0,0,1,165.64,52.92Z"/><path class="cls-3" d="M175.87,38.24c-.3,1.57-1.16,2.55-2.63,2.44a2.22,2.22,0,0,1-2.23-2.6,2.13,2.13,0,0,1,2.35-2.15C174.94,35.93,175.6,36.94,175.87,38.24Z"/></g></g></svg>