<svg xmlns="http://www.w3.org/2000/svg" viewBox="0 0 108.02 116.68"><defs><style>.cls-1{fill:#85aa66;}.cls-2{fill:#fefcc6;}.cls-3{fill:#0e0d0b;}</style></defs><g id="图层_2" data-name="图层 2"><g id="图层_1-2" data-name="图层 1"><path class="cls-1" d="M15.64,66.31l-2.19-1.5C-.3,55.52-3.71,41.1,4.16,26.34,13,9.68,27.42,1.25,45.66.09,58.29-.7,69.51,3.52,76.06,15.68A21.33,21.33,0,0,1,78,30.48c-.24,1.17-.4,2.35-.59,3.53A6,6,0,0,1,75,35.79C57.44,44.65,40.17,54.07,22.57,62.86,20.26,64,18.3,65.88,15.64,66.31Z"/><path class="cls-1" d="M84.7,49.59a14.13,14.13,0,0,0,8.14,4c9.11,1.44,13.72,5.91,14.89,15.16,1.25,9.93-1.52,18.76-8.58,26a12.42,12.42,0,0,1-11,3.58C82.49,97.72,77.35,100,76.14,105c-2.26,9.25-12.7,13.35-21.26,11.06-10.74-2.87-20.56-7.16-26.32-17.55A33.69,33.69,0,0,1,24.7,86c0-1.52,1.3-1.9,2.27-2.49Q54.42,67,82,50.67A5.18,5.18,0,0,1,84.7,49.59Z"/><path d="M84.7,49.59c-5.58,4-11.66,7.23-17.54,10.77-13.75,8.3-27.54,16.52-41.32,24.78a10.72,10.72,0,0,0-1.14.9c-1.78-2.82-2-6.14-2.73-9.25a18.91,18.91,0,0,0-6.33-10.47c.15-1.14,1.19-1.27,1.94-1.66Q46.08,49.8,74.61,35c.87-.45,1.68-1.11,2.77-1C77.53,40.28,80.83,45.07,84.7,49.59Z"/><path class="cls-2" d="M100.43,75.22A16.59,16.59,0,1,1,84,58.57,16.68,16.68,0,0,1,100.43,75.22Z"/><path class="cls-3" d="M92.52,79.72A2.29,2.29,0,0,1,90,77.39a2.23,2.23,0,0,1,2.31-2.49,2.28,2.28,0,0,1,2.51,2.33C94.93,78.77,94,79.51,92.52,79.72Z"/></g></g></svg>