<svg xmlns="http://www.w3.org/2000/svg" viewBox="0 0 81.76 101.23"><defs><style>.cls-1{fill:#f1d60e;}.cls-2{fill:#07060b;}.cls-3{fill:#fefcc6;}.cls-4{fill:#0a0a08;}</style></defs><g id="图层_2" data-name="图层 2"><g id="图层_1-2" data-name="图层 1"><path class="cls-1" d="M72.42,97C69,92.08,65.43,87.23,62,82.3c-.91-1.32-1.76-1.92-3.43-1.46a14.14,14.14,0,0,1-4.73.63c-4.56-.34-6.68,2.23-8.41,6-2.11,4.57-4.69,8.93-7.28,13.77-3.35-4.93-6.45-9.43-9.48-14a24.86,24.86,0,0,0-3.46-4.12A136.64,136.64,0,0,1,5,58.79c-6.14-9.44-7.34-30.93.71-40.16,2.45-2.81,4.82-5.82,8.31-7.16C23.67,7.77,33.11,3.28,43.26,1A46.17,46.17,0,0,1,61.74.84C73.14,3,80.39,12.26,81.42,24.26,83,42.38,79.1,59.6,73.86,76.65a27.42,27.42,0,0,0-.77,8c0,4.06,0,8.12,0,12.18Z"/><path class="cls-2" d="M49.11,71.16c-5.34-.85-11.32-1.91-15.82-6.66C28.08,59,21.34,55.14,16.64,49.07a19.77,19.77,0,0,1-3.13-5.38c-1.67-4.61-1.2-6.91,2-9.65,3.48-3,8.21-3.6,11.69-1.58A7.74,7.74,0,0,1,30.4,37c3.12,8.92,13.41,16.69,22.78,17.22,1.2.07,2.4.16,3.58.31,4.51.55,6.52,3.8,5,8.11C60.2,67.22,54.7,71.15,49.11,71.16Z"/><path class="cls-3" d="M74.31,26.16a16.6,16.6,0,1,1-33.19-.26A16.27,16.27,0,0,1,57.7,9.48,16.23,16.23,0,0,1,74.31,26.16Z"/><path class="cls-4" d="M68.76,28c-.21,1.44-1,2.51-2.48,2.51A2.23,2.23,0,0,1,63.9,28a2.1,2.1,0,0,1,2.19-2.32A2.44,2.44,0,0,1,68.76,28Z"/></g></g></svg>